/vscmnt/brussel_pixiu_data/_data_brussel/112/vsc11236/PredSimResults/SUBJ10mtu3D/weighted-expIG/worker_02.mot
version=1
nRows=4
nColumns=50
inDegrees=yes
endheader
                time	         pelvis_tilt	         pelvis_list	     pelvis_rotation	           pelvis_tx	           pelvis_ty	           pelvis_tz	       hip_flexion_r	     hip_adduction_r	      hip_rotation_r	        knee_angle_r	       ankle_angle_r	         mtp_angle_r	       hip_flexion_l	     hip_adduction_l	      hip_rotation_l	        knee_angle_l	       ankle_angle_l	         mtp_angle_l	    lumbar_extension	      lumbar_bending	     lumbar_rotation	 ercspn_r/activation	 intobl_r/activation	 extobl_r/activation	    abd_r/activation	    add_r/activation	hamstrings_r/activation	bifemsh_r/activation	glut_max_r/activation	iliopsoas_r/activation	rect_fem_r/activation	  vasti_r/activation	gastroc_r/activation	 soleus_r/activation	tib_ant_r/activation	 ercspn_l/activation	 intobl_l/activation	 extobl_l/activation	    abd_l/activation	    add_l/activation	hamstrings_l/activation	bifemsh_l/activation	glut_max_l/activation	iliopsoas_l/activation	rect_fem_l/activation	  vasti_l/activation	gastroc_l/activation	 soleus_l/activation	tib_ant_l/activation	
          3.00000003	        -11.51907121	          1.47029841	         -6.10605286	          3.39000003	          0.84447635	         -0.01920068	         27.13580683	          5.09496190	          1.84112751	        -59.09251431	        -22.25896156	         21.55879564	         27.93171246	          3.39621332	         11.44974534	         -5.29660111	          4.18993897	          3.11029590	         -1.80134682	         -2.73849929	         -3.86973069	          0.12951863	          0.00999999	          0.01269633	          0.06132515	          0.17483422	          0.06464811	          0.03274456	          0.00999999	          0.08160378	          0.50670341	          0.22837313	          0.17362691	          0.16364478	          0.00999999	          0.18720956	          0.05147331	          0.01751454	          0.17469065	          0.27145823	          0.21756789	          0.00999999	          0.05490706	          0.18059457	          0.16844175	          0.01979788	          0.01160569	          0.01572919	          0.30195102	
          3.02000003	        -11.62100698	          0.92926050	         -4.67419431	          3.41370948	          0.83736692	         -0.02035324	         25.36114395	          4.85093735	          0.22899253	        -59.07767922	        -23.34340832	         25.70029653	         28.04390169	          3.54713415	         10.71288278	         -7.07089417	          4.13127077	          2.39239362	         -1.62444349	         -2.94994712	         -3.26713437	          0.11970852	          0.00999999	          0.00999999	          0.04599386	          0.13112566	          0.04848608	          0.02455842	          0.00999999	          0.09106906	          0.38002756	          0.17788206	          0.17757710	          0.13794874	          0.00999999	          0.14040717	          0.03860498	          0.01313590	          0.16728022	          0.20359367	          0.18445583	          0.05520346	          0.08911285	          0.13544593	          0.12633131	          0.01484841	          0.01333332	          0.01333333	          0.30213315	
          3.04000003	        -11.69758643	          0.34688763	         -3.17310722	          3.43864766	          0.83151620	         -0.02126594	         23.88328558	          4.60660432	         -1.74098027	        -59.34083779	        -24.82922369	         27.55689790	         27.70300517	          3.75142055	         10.41868850	         -9.35975514	          4.15775470	          1.84458757	         -1.23925099	         -3.23061867	         -2.68039299	          0.15661950	          0.02593890	          0.00999999	          0.03449540	          0.18680351	          0.03636456	          0.01841881	          0.01777520	          0.20682678	          0.28502067	          0.13341155	          0.13318283	          0.10346155	          0.00999999	          0.10530538	          0.02895373	          0.00999999	          0.21276724	          0.15269525	          0.13834187	          0.12526239	          0.20591900	          0.10158445	          0.09474848	          0.01113631	          0.00999999	          0.00999999	          0.32768776	
          3.06000003	        -11.75968944	         -0.15849671	         -1.64304359	          3.46340213	          0.82862503	         -0.02188710	         22.82454655	          4.35794296	         -3.70250719	        -59.66004294	        -27.01597224	         26.62379677	         27.48213347	          4.08206428	         10.89075256	        -12.11388676	          5.46130314	          1.41496549	         -0.83977290	         -3.68499231	         -2.11271767	          0.19568925	          0.13287362	          0.00999999	          0.02587155	          0.14010263	          0.02727342	          0.01381411	          0.03354525	          0.34955727	          0.21376550	          0.10005866	          0.09988712	          0.07759616	          0.00999999	          0.12176918	          0.02171530	          0.00999999	          0.24569435	          0.18426848	          0.10564656	          0.09394679	          0.28472434	          0.07618833	          0.07106136	          0.01865231	          0.02306363	          0.00999999	          0.24576582	
